<?xml version="1.0" encoding="UTF-8" standalone="no"?>
<!-- Created with Inkscape (http://www.inkscape.org/) -->

<svg
   width="1000"
   height="1000"
   viewBox="0 0 264.58333 264.58333"
   version="1.1"
   id="svg1"
   inkscape:version="1.4.2 (ebf0e940d0, 2025-05-08)"
   sodipodi:docname="beancodelogo_bg_square.svg"
   inkscape:export-filename="beancodelogo_bg_square_web.png"
   inkscape:export-xdpi="96"
   inkscape:export-ydpi="96"
   xmlns:inkscape="http://www.inkscape.org/namespaces/inkscape"
   xmlns:sodipodi="http://sodipodi.sourceforge.net/DTD/sodipodi-0.dtd"
   xmlns="http://www.w3.org/2000/svg"
   xmlns:svg="http://www.w3.org/2000/svg">
  <sodipodi:namedview
     id="namedview1"
     pagecolor="#ffffff"
     bordercolor="#000000"
     borderopacity="0.25"
     inkscape:showpageshadow="2"
     inkscape:pageopacity="0.0"
     inkscape:pagecheckerboard="0"
     inkscape:deskcolor="#d1d1d1"
     inkscape:document-units="px"
     inkscape:zoom="0.55736373"
     inkscape:cx="591.17589"
     inkscape:cy="402.78903"
     inkscape:window-width="1920"
     inkscape:window-height="1131"
     inkscape:window-x="0"
     inkscape:window-y="0"
     inkscape:window-maximized="1"
     inkscape:current-layer="layer1" />
  <defs
     id="defs1" />
  <g
     inkscape:label="Layer 1"
     inkscape:groupmode="layer"
     id="layer1">
    <rect
       style="fill:#dcf1c8;fill-opacity:1;stroke-width:1.66811"
       id="rect1"
       width="264.58334"
       height="264.58334"
       x="1.4210855e-14"
       y="0" />
    <g
       id="g5"
       transform="matrix(3.0046019,0,0,3.0046019,-37.142379,-86.996896)">
      <path
         style="fill:#526e35;fill-opacity:1;stroke-width:1.33617"
         d="m 46.715891,38.329799 c 0,0 -31.071162,11.674136 -31.250765,40.949279 C 15.285535,108.55422 45.328351,115.14366 61.982067,109.09301 87.658338,99.764291 102.93134,75.327824 95.388054,58.624834 87.844763,41.921838 70.60297,28.092481 46.715891,38.329799 Z"
         id="path1"
         sodipodi:nodetypes="csssc" />
      <path
         style="fill:#68834d;fill-opacity:1;stroke-width:1.33617"
         d="m 19.394116,62.440992 c 0,0 -1.101617,13.555907 1.348323,19.941064 2.39771,6.249033 8.181114,18.084344 25.524365,18.718684 17.397031,0.63632 25.578307,-4.130514 34.84286,-14.877017 5.047875,-5.855337 7.637313,-12.564788 8.797897,-16.708549 0.824047,-2.942208 0.202735,-11.193886 -1.57247,-14.551586 -3.226694,-6.103109 -7.345958,-11.838216 -21.129157,-16.351621 -14.177668,-4.64258 -24.710692,1.693454 -24.710692,1.693454 -0.04484,-0.126642 -6.597891,3.472586 -10.398894,6.715777 -2.47838,2.11467 -8.392315,7.112928 -12.702218,15.419794 z"
         id="path2"
         sodipodi:nodetypes="csssssscscc" />
      <path
         style="fill:#749357;fill-opacity:1;stroke-width:1.33617"
         d="m 32.706928,47.669105 c 0,0 -6.254719,3.974973 -8.890302,11.674136 -1.900827,5.552766 0.869644,15.101098 2.783712,17.76565 1.409382,1.961985 6.110343,9.40193 17.735713,11.449769 C 56.741932,90.743988 72.206296,82.768771 76.64965,73.037953 81.361373,62.719406 80.958986,56.565351 76.928069,51.483887 71.592566,44.75786 60.919458,38.090324 51.580147,39.886342 c -9.339305,1.796023 -18.8732,7.782763 -18.8732,7.782763 z"
         id="path3"
         sodipodi:nodetypes="csssssscc" />
      <path
         style="fill:#415c28;fill-opacity:1;stroke-width:1.33617"
         d="m 37.275551,50.104959 c -1.466363,0.935628 -0.639832,0.359181 -3.244061,2.873632 -2.604229,2.514425 -2.200125,3.288966 -0.85311,4.007373 1.347018,0.718411 6.341681,-1.935184 9.563814,-4.130852 2.191823,-1.493577 8.149444,-5.343163 6.712626,-6.330975 -2.198805,-1.511675 -3.897712,-0.287299 -6.72963,0.732703 -2.460316,0.88619 -3.983275,1.912491 -5.449639,2.848119 z"
         id="path4"
         sodipodi:nodetypes="zsssssz" />
      <path
         style="fill:#b3cf97;fill-opacity:1;stroke-width:1.33617"
         d="m 38.341943,49.285523 c 0,0 -3.648169,1.941946 -3.771644,4.288001 -0.0909,1.727591 2.082846,3.06066 5.870741,0.740859 3.794096,-2.323598 5.268776,-3.628837 5.644236,-3.867274 1.483363,-0.942023 2.598694,-2.736338 0.20405,-3.024956 -1.387032,-0.167179 -2.391403,-0.358049 -4.846302,0.321769 -1.69754,0.470092 -3.101091,1.541597 -3.101091,1.541601 z"
         id="path5"
         sodipodi:nodetypes="csssssc" />
    </g>
    <text
       xml:space="preserve"
       style="font-style:normal;font-variant:normal;font-weight:bold;font-stretch:normal;font-size:81.2819px;line-height:1;font-family:'Comic Neue';-inkscape-font-specification:'Comic Neue, Bold';font-variant-ligatures:normal;font-variant-caps:normal;font-variant-numeric:normal;font-variant-east-asian:normal;text-align:center;letter-spacing:0.157435px;writing-mode:lr-tb;direction:ltr;text-anchor:middle;fill:#e7f6d9;fill-opacity:1;stroke-width:0.90525"
       x="62.963638"
       y="254.56622"
       id="text1"
       transform="rotate(-25.397537)"><tspan
         sodipodi:role="line"
         id="tspan1"
         style="font-style:normal;font-variant:normal;font-weight:bold;font-stretch:normal;font-size:81.2818997px;font-family:'Comic Neue';-inkscape-font-specification:'Comic Neue, Bold';font-variant-ligatures:normal;font-variant-caps:normal;font-variant-numeric:normal;font-variant-east-asian:normal;fill:#e7f6d9;fill-opacity:1;stroke-width:0.90525"
         x="63.042351"
         y="254.56622">Web</tspan></text>
  </g>
</svg>
